<svg width="40" height="40" viewBox="0 0 40 40" fill="none" xmlns="http://www.w3.org/2000/svg">
<circle cx="20" cy="21" r="15" fill="black"/>
<path d="M32.3741 7.6259C30.752 5.98775 28.8222 4.68624 26.6956 3.79615C24.5689 2.90607 22.2874 2.44493 19.9821 2.43926C17.6767 2.43359 15.3929 2.88348 13.2619 3.76309C11.1309 4.6427 9.19473 5.93469 7.5646 7.56484C5.93445 9.19497 4.64246 11.1311 3.76285 13.2622C2.88324 15.3932 2.43335 17.6769 2.43902 19.9823C2.44469 22.2876 2.90582 24.5692 3.79591 26.6958C4.68599 28.8225 5.9875 30.7522 7.62566 32.3743C9.24778 34.0125 11.1775 35.314 13.3042 36.2041C15.4308 37.0942 17.7123 37.5553 20.0177 37.561C22.3231 37.5667 24.6068 37.1168 26.7379 36.2372C28.8688 35.3575 30.805 34.0656 32.4352 32.4354C34.0653 30.8053 35.3573 28.8691 36.2369 26.7381C37.1165 24.6072 37.5665 22.3233 37.5607 20.0179C37.555 17.7126 37.094 15.4311 36.2039 13.3044C35.3138 11.1778 34.0122 9.24801 32.3741 7.6259ZM19.9999 33.7501V26.2501C18.3423 26.2501 16.7525 25.5916 15.5804 24.4196C14.4083 23.2475 13.7499 21.6577 13.7499 20.0001C13.7499 18.3425 14.4083 16.7528 15.5804 15.5807C16.7525 14.4086 18.3423 13.7501 19.9999 13.7501V6.25012C27.5819 6.25012 33.7499 12.422 33.7499 20.0001C33.7499 27.5782 27.5819 33.7501 19.9999 33.7501Z" fill="white"/>
<path d="M26.25 20C26.25 18.3424 25.5915 16.7527 24.4195 15.5805C23.2473 14.4085 21.6576 13.75 20 13.75V26.25C21.6576 26.25 23.2473 25.5915 24.4195 24.4195C25.5915 23.2473 26.25 21.6576 26.25 20Z" fill="white"/>
</svg>
